<?xml version="1.0" ?><!DOCTYPE svg  PUBLIC '-//W3C//DTD SVG 1.1//EN'  'http://www.w3.org/Graphics/SVG/1.1/DTD/svg11.dtd'><svg enable-background="new 0 0 100 100" version="1.1" viewBox="0 0 100 100" xml:space="preserve" xmlns="http://www.w3.org/2000/svg" xmlns:xlink="http://www.w3.org/1999/xlink"><g id="GRID"/><g id="Layer_2"><path d="M53.9,46.6l0.2,0.2c0.3,0.3,0.7,0.4,1.1,0.4c0.4,0,0.8-0.2,1.1-0.4l4.3-4.3c1,0.7,2.3,1,3.4,1c1.7,0,3.3-0.6,4.6-1.9   c2.2-2.2,2.5-5.5,0.9-8.1l4.3-4.3c0.3-0.3,0.4-0.7,0.4-1.1c0-0.4-0.2-0.8-0.4-1.1L73.5,27c-2.6-2.6-6.1-4.1-9.8-4.1   c-1.7,0-3.3,0.3-4.8,0.9l-5.5-5.5c-2.3-2.3-5.9-2.3-8.2,0c-1.1,1.1-1.7,2.5-1.7,4.1c0,1.6,0.6,3,1.7,4.1l2,2L29.2,46.5   c-1-0.6-2.1-1-3.4-1c-3.6,0-6.5,2.9-6.5,6.5s2.9,6.5,6.5,6.5c0.2,0,0.3,0,0.5,0l12.9,12.9h-4.3c-3.5,0-6.4,2.9-6.4,6.4   c0,0.8,0.7,1.5,1.5,1.5H60c0,0,0,0,0,0c0.8,0,1.5-0.7,1.5-1.5c0-0.1,0-0.2,0-0.3c-0.1-3.4-3-6.1-6.4-6.1h-3.8l-19-19   c0-0.1,0-0.3,0-0.4c0-1.3-0.4-2.5-1-3.5l18-18l1.3,1.3c-0.6,1.5-0.9,3.2-0.9,4.8C49.8,40.5,51.3,44,53.9,46.6z M25.8,55.7   c-2,0-3.5-1.6-3.5-3.5s1.6-3.5,3.5-3.5c2,0,3.5,1.6,3.5,3.5S27.7,55.7,25.8,55.7z M55.1,74.5c1.3,0,2.5,0.8,3.1,1.9H31.8   c0.6-1.1,1.7-1.9,3.1-1.9H55.1z M47,71.5h-3.7L29.4,57.6c0.7-0.5,1.3-1.1,1.8-1.8L47,71.5z M66.5,39.5c-1,1-2.5,1.3-3.7,0.8   l4.5-4.5C67.7,37.1,67.5,38.5,66.5,39.5z M63.7,25.9c2.5,0,4.9,0.8,6.8,2.4L55.2,43.6c-1.6-1.9-2.4-4.3-2.4-6.8   c0-2.9,1.1-5.6,3.2-7.7C58.1,27,60.8,25.9,63.7,25.9z M47.3,24.3c-0.5-0.5-0.8-1.2-0.8-2c0-0.7,0.3-1.4,0.8-2   c1.1-1.1,2.8-1.1,3.9,0l4.8,4.8c-0.8,0.5-1.5,1.1-2.2,1.8c-0.7,0.7-1.3,1.4-1.8,2.2L47.3,24.3z"/><path d="M80.9,55.5c-0.8-0.3-1.6,0-2,0.8l-2.3,5.5h-1.7v-6.7c0-0.8-0.7-1.5-1.5-1.5s-1.5,0.7-1.5,1.5v6.7h-1.7l-2.2-13.5   c-0.1-0.8-0.9-1.4-1.7-1.2c-0.8,0.1-1.4,0.9-1.2,1.7l2.1,13H67c-0.8,0-1.5,0.7-1.5,1.5v12.3c0,2.2,1.8,4,4,4h7.4c2.2,0,4-1.8,4-4   V63.3c0-0.7-0.5-1.2-1.1-1.4l1.9-4.4C82,56.7,81.7,55.8,80.9,55.5z M77.9,75.5c0,0.6-0.4,1-1,1h-7.4c-0.6,0-1-0.4-1-1V64.8h9.4   V75.5z"/></g></svg>